<svg width="33" height="33" viewBox="0 0 33 33" fill="none" xmlns="http://www.w3.org/2000/svg">
<circle cx="16.1761" cy="16.6847" r="16.1761" fill="#1A1919"/>
<path d="M14.295 23.2694C14.1543 23.2694 14.0225 23.2473 13.8994 23.203C13.7763 23.1594 13.662 23.0848 13.5565 22.9793L9.02017 18.443C8.82676 18.2496 8.73428 17.9988 8.74272 17.6908C8.75186 17.3834 8.85314 17.1331 9.04655 16.9397C9.23996 16.7463 9.48611 16.6495 9.78502 16.6495C10.0839 16.6495 10.3301 16.7463 10.5235 16.9397L14.295 20.7112L23.2358 11.7703C23.4292 11.5769 23.6799 11.4802 23.988 11.4802C24.2953 11.4802 24.5457 11.5769 24.7391 11.7703C24.9325 11.9637 25.0292 12.2141 25.0292 12.5215C25.0292 12.8295 24.9325 13.0803 24.7391 13.2737L15.0335 22.9793C14.928 23.0848 14.8137 23.1594 14.6906 23.203C14.5675 23.2473 14.4357 23.2694 14.295 23.2694Z" fill="white"/>
</svg>
