<svg width="33" height="33" viewBox="0 0 33 33" fill="none" xmlns="http://www.w3.org/2000/svg">
<circle cx="16.1761" cy="16.2076" r="16.1761" fill="#B4B5BC"/>
<path d="M14.295 22.7924C14.1543 22.7924 14.0225 22.7702 13.8994 22.7259C13.7763 22.6823 13.662 22.6078 13.5565 22.5023L9.02017 17.9659C8.82676 17.7725 8.73428 17.5218 8.74272 17.2137C8.75186 16.9064 8.85314 16.656 9.04655 16.4626C9.23996 16.2692 9.48611 16.1725 9.78502 16.1725C10.0839 16.1725 10.3301 16.2692 10.5235 16.4626L14.295 20.2341L23.2358 11.2933C23.4292 11.0999 23.6799 11.0032 23.988 11.0032C24.2953 11.0032 24.5457 11.0999 24.7391 11.2933C24.9325 11.4867 25.0292 11.7371 25.0292 12.0444C25.0292 12.3525 24.9325 12.6032 24.7391 12.7966L15.0335 22.5023C14.928 22.6078 14.8137 22.6823 14.6906 22.7259C14.5675 22.7702 14.4357 22.7924 14.295 22.7924Z" fill="white"/>
</svg>
