<svg width="33" height="34" viewBox="0 0 33 34" fill="none" xmlns="http://www.w3.org/2000/svg">
<circle cx="16.1761" cy="17.0001" r="16.1761" fill="#2FD283"/>
<path d="M14.295 23.5849C14.1543 23.5849 14.0225 23.5627 13.8994 23.5184C13.7763 23.4748 13.662 23.4003 13.5565 23.2948L9.02017 18.7584C8.82676 18.565 8.73428 18.3143 8.74272 18.0062C8.75186 17.6989 8.85314 17.4485 9.04655 17.2551C9.23996 17.0617 9.48611 16.965 9.78502 16.965C10.0839 16.965 10.3301 17.0617 10.5235 17.2551L14.295 21.0266L23.2358 12.0858C23.4292 11.8924 23.6799 11.7957 23.988 11.7957C24.2953 11.7957 24.5457 11.8924 24.7391 12.0858C24.9325 12.2792 25.0292 12.5296 25.0292 12.8369C25.0292 13.145 24.9325 13.3957 24.7391 13.5891L15.0335 23.2948C14.928 23.4003 14.8137 23.4748 14.6906 23.5184C14.5675 23.5627 14.4357 23.5849 14.295 23.5849Z" fill="white"/>
</svg>
