<svg width="33" height="33" viewBox="0 0 33 33" fill="none" xmlns="http://www.w3.org/2000/svg">
<circle cx="16.1761" cy="16.7247" r="16.1761" fill="#110000"/>
<path d="M14.295 23.3095C14.1543 23.3095 14.0225 23.2873 13.8994 23.243C13.7763 23.1994 13.662 23.1249 13.5565 23.0194L9.02017 18.483C8.82676 18.2896 8.73428 18.0389 8.74272 17.7308C8.75186 17.4235 8.85314 17.1731 9.04655 16.9797C9.23996 16.7863 9.48611 16.6896 9.78502 16.6896C10.0839 16.6896 10.3301 16.7863 10.5235 16.9797L14.295 20.7512L23.2358 11.8104C23.4292 11.617 23.6799 11.5203 23.988 11.5203C24.2953 11.5203 24.5457 11.617 24.7391 11.8104C24.9325 12.0038 25.0292 12.2542 25.0292 12.5615C25.0292 12.8696 24.9325 13.1203 24.7391 13.3137L15.0335 23.0194C14.928 23.1249 14.8137 23.1994 14.6906 23.243C14.5675 23.2873 14.4357 23.3095 14.295 23.3095Z" fill="white"/>
</svg>
