<svg width="33" height="33" viewBox="0 0 33 33" fill="none" xmlns="http://www.w3.org/2000/svg">
<circle cx="16.1761" cy="16.2415" r="16.1761" fill="#110000"/>
<path d="M14.295 22.8263C14.1543 22.8263 14.0225 22.8042 13.8994 22.7599C13.7763 22.7163 13.662 22.6417 13.5565 22.5362L9.02017 17.9999C8.82676 17.8065 8.73428 17.5557 8.74272 17.2477C8.75186 16.9403 8.85314 16.69 9.04655 16.4965C9.23996 16.3031 9.48611 16.2064 9.78502 16.2064C10.0839 16.2064 10.3301 16.3031 10.5235 16.4965L14.295 20.268L23.2358 11.3272C23.4292 11.1338 23.6799 11.0371 23.988 11.0371C24.2953 11.0371 24.5457 11.1338 24.7391 11.3272C24.9325 11.5206 25.0292 11.771 25.0292 12.0784C25.0292 12.3864 24.9325 12.6371 24.7391 12.8305L15.0335 22.5362C14.928 22.6417 14.8137 22.7163 14.6906 22.7599C14.5675 22.8042 14.4357 22.8263 14.295 22.8263Z" fill="white"/>
</svg>
