<svg width="33" height="33" viewBox="0 0 33 33" fill="none" xmlns="http://www.w3.org/2000/svg">
<circle cx="16.1761" cy="16.2015" r="16.1761" fill="#2FD283"/>
<path d="M14.295 22.7863C14.1543 22.7863 14.0225 22.7641 13.8994 22.7198C13.7763 22.6762 13.662 22.6017 13.5565 22.4962L9.02017 17.9598C8.82676 17.7664 8.73428 17.5157 8.74272 17.2076C8.75186 16.9003 8.85314 16.6499 9.04655 16.4565C9.23996 16.2631 9.48611 16.1664 9.78502 16.1664C10.0839 16.1664 10.3301 16.2631 10.5235 16.4565L14.295 20.228L23.2358 11.2872C23.4292 11.0938 23.6799 10.9971 23.988 10.9971C24.2953 10.9971 24.5457 11.0938 24.7391 11.2872C24.9325 11.4806 25.0292 11.731 25.0292 12.0383C25.0292 12.3464 24.9325 12.5971 24.7391 12.7905L15.0335 22.4962C14.928 22.6017 14.8137 22.6762 14.6906 22.7198C14.5675 22.7641 14.4357 22.7863 14.295 22.7863Z" fill="white"/>
</svg>
