<svg width="33" height="34" viewBox="0 0 33 34" fill="none" xmlns="http://www.w3.org/2000/svg">
<circle cx="16.1761" cy="17.1676" r="16.1761" fill="#110000"/>
<path d="M14.295 23.7524C14.1543 23.7524 14.0225 23.7302 13.8994 23.6859C13.7763 23.6423 13.662 23.5677 13.5565 23.4622L9.02017 18.9259C8.82676 18.7325 8.73428 18.4818 8.74272 18.1737C8.75186 17.8664 8.85314 17.616 9.04655 17.4226C9.23996 17.2292 9.48611 17.1325 9.78502 17.1325C10.0839 17.1325 10.3301 17.2292 10.5235 17.4226L14.295 21.1941L23.2358 12.2532C23.4292 12.0598 23.6799 11.9631 23.988 11.9631C24.2953 11.9631 24.5457 12.0598 24.7391 12.2532C24.9325 12.4467 25.0292 12.697 25.0292 13.0044C25.0292 13.3124 24.9325 13.5632 24.7391 13.7566L15.0335 23.4622C14.928 23.5677 14.8137 23.6423 14.6906 23.6859C14.5675 23.7302 14.4357 23.7524 14.295 23.7524Z" fill="white"/>
</svg>
