<svg width="27" height="27" viewBox="0 0 27 27" fill="none" xmlns="http://www.w3.org/2000/svg">
<path d="M21.2797 6.05392C19.8284 5.37736 18.257 4.88631 16.6202 4.60259C16.6059 4.60213 16.5916 4.60482 16.5784 4.61048C16.5652 4.61614 16.5534 4.62462 16.5438 4.63533C16.3474 4.99543 16.1182 5.46466 15.9655 5.82476C14.2293 5.56287 12.4637 5.56287 10.7276 5.82476C10.5748 5.45375 10.3456 4.99543 10.1383 4.63533C10.1274 4.6135 10.0947 4.60259 10.0619 4.60259C8.42508 4.88631 6.86462 5.37736 5.40238 6.05392C5.39146 6.05392 5.38055 6.06483 5.36964 6.07575C2.4015 10.517 1.58308 14.8383 1.98683 19.1159C1.98683 19.1377 1.99774 19.1596 2.01957 19.1705C3.98378 20.6109 5.8716 21.4839 7.7376 22.0622C7.77034 22.0732 7.80308 22.0622 7.81399 22.0404C8.25048 21.4402 8.64332 20.8073 8.9816 20.1417C9.00343 20.098 8.9816 20.0544 8.93796 20.0435C8.31596 19.8034 7.72669 19.5197 7.14834 19.1923C7.10469 19.1705 7.10469 19.105 7.13743 19.0723C7.25746 18.985 7.3775 18.8868 7.49753 18.7995C7.51936 18.7776 7.5521 18.7776 7.57392 18.7886C11.3277 20.5018 15.3762 20.5018 19.0864 18.7886C19.1082 18.7776 19.1409 18.7776 19.1628 18.7995C19.2828 18.8977 19.4028 18.985 19.5229 19.0832C19.5665 19.1159 19.5665 19.1814 19.512 19.2032C18.9445 19.5415 18.3443 19.8143 17.7223 20.0544C17.6787 20.0653 17.6678 20.1199 17.6787 20.1526C18.0279 20.8182 18.4207 21.4512 18.8463 22.0513C18.879 22.0622 18.9118 22.0732 18.9445 22.0622C20.8214 21.4839 22.7093 20.6109 24.6735 19.1705C24.6953 19.1596 24.7062 19.1377 24.7062 19.1159C25.1863 14.1727 23.9096 9.88413 21.3234 6.07575C21.3125 6.06483 21.3016 6.05392 21.2797 6.05392ZM9.54904 16.5079C8.42508 16.5079 7.48662 15.4712 7.48662 14.1945C7.48662 12.9177 8.40325 11.8811 9.54904 11.8811C10.7057 11.8811 11.6224 12.9287 11.6115 14.1945C11.6115 15.4712 10.6948 16.5079 9.54904 16.5079ZM17.1549 16.5079C16.0309 16.5079 15.0925 15.4712 15.0925 14.1945C15.0925 12.9177 16.0091 11.8811 17.1549 11.8811C18.3116 11.8811 19.2282 12.9287 19.2173 14.1945C19.2173 15.4712 18.3116 16.5079 17.1549 16.5079Z" fill="white"/>
</svg>
