<svg width="27" height="27" viewBox="0 0 27 27" fill="none" xmlns="http://www.w3.org/2000/svg">
<path d="M18.3483 6.58898C18.3483 6.58898 18.9048 7.1346 18.3483 6.58898C17.6024 5.73741 17.1913 4.64379 17.1916 3.51172H13.8197V17.0429C13.7937 17.7752 13.4846 18.4688 12.9574 18.9776C12.4302 19.4865 11.7261 19.7709 10.9934 19.771C9.44389 19.771 8.15624 18.5052 8.15624 16.9338C8.15624 15.0569 9.96768 13.6492 11.8337 14.2276V10.7793C8.06895 10.2773 4.77344 13.2018 4.77344 16.9338C4.77344 20.5676 7.78523 23.1538 10.9825 23.1538C14.409 23.1538 17.1916 20.3712 17.1916 16.9338V10.07C18.5589 11.0519 20.2005 11.5788 21.8839 11.5759V8.204C21.8839 8.204 19.8324 8.30221 18.3483 6.58898Z" fill="white"/>
</svg>
