<svg width="128" height="32" viewBox="0 0 128 32" fill="none" xmlns="http://www.w3.org/2000/svg">
<path d="M25.9205 30.8357C23.9176 30.8357 22.3459 30.5737 21.2056 30.0499C20.176 29.6248 19.3143 28.8713 18.7531 27.9056C18.2431 26.9469 17.9911 25.8711 18.0221 24.7846C18.0593 23.5164 18.2321 22.2558 18.5374 21.0247L23.9066 1.89478L30.46 0.874023L24.5645 21.9169C24.4602 22.3779 24.3966 22.8473 24.3745 23.3196C24.3531 23.7082 24.4338 24.0957 24.6084 24.4431C24.8058 24.7943 25.1127 25.0705 25.4819 25.2289C26.0254 25.454 26.6049 25.5784 27.1925 25.5961L25.9205 30.8357Z" fill="white"/>
<path d="M49.2397 20.7903C48.8461 22.3786 48.7323 24.0239 48.9035 25.6517C49.0371 27.1266 49.3602 28.578 49.8647 29.9697L44.2397 30.7775C44.0716 30.4397 43.9181 30.1129 43.7755 29.8008C43.633 29.4887 43.4941 29.1362 43.3515 28.7396C42.5562 29.395 41.6758 29.9385 40.7346 30.3552C39.7192 30.789 38.625 31.0054 37.5218 30.9904C36.2757 31.0262 35.0379 30.775 33.9034 30.2561C32.9425 29.7922 32.1037 29.108 31.4545 28.2586C30.8002 27.3849 30.3324 26.3849 30.0802 25.3212C29.3516 22.2931 29.5659 19.1133 30.6943 16.2116C31.3534 14.5321 32.3288 12.9962 33.5671 11.6879C34.8033 10.4063 36.2788 9.382 37.9092 8.67341C39.6156 7.92956 41.4586 7.55427 43.3186 7.57188C43.5708 7.57188 44.0167 7.57188 44.6491 7.61227C45.2814 7.65265 46.0087 7.70407 46.8421 7.8032C47.7109 7.91531 48.5726 8.07836 49.4225 8.29154H49.4481C50.1486 8.47833 50.7481 8.93378 51.1179 9.55997C51.4877 10.1862 51.5981 10.9331 51.4254 11.6402L49.2397 20.7903ZM44.8537 12.9767C44.4882 12.918 44.1593 12.8776 43.8632 12.8482C43.5672 12.8188 43.2602 12.8078 42.8764 12.8042C41.9132 12.7957 40.9645 13.04 40.1242 13.5128C39.2808 14.0029 38.5369 14.6482 37.9312 15.4148C37.293 16.2232 36.7984 17.1362 36.4692 18.1135C36.1148 19.137 35.9356 20.2134 35.9392 21.297C35.8856 22.4144 36.1184 23.5269 36.6154 24.5281C37.0649 25.3212 37.8983 25.7141 39.1081 25.7141C39.7133 25.7296 40.3138 25.604 40.8625 25.3469C41.485 25.0186 42.0493 24.5893 42.5328 24.0765C42.5876 23.3678 42.6827 22.6078 42.8069 21.8441C42.9312 21.0803 43.0701 20.3496 43.209 19.6997L44.8537 12.9767Z" fill="white"/>
<path d="M57.2811 9.09147C57.7599 8.95194 58.2898 8.78671 58.8673 8.60312C59.4448 8.41953 60.0918 8.23595 60.8118 8.09275C61.5318 7.94955 62.3323 7.81002 63.2204 7.72557C64.2246 7.62126 65.2336 7.57222 66.2431 7.57869C69.5692 7.57869 71.8511 8.5407 73.0889 10.4647C74.3268 12.3887 74.54 15.0165 73.7286 18.348L70.8557 30.4098H64.5472L67.3396 18.605C67.5077 17.8707 67.6393 17.1547 67.7417 16.4607C67.8427 15.8523 67.8353 15.2306 67.7197 14.6248C67.6172 14.1216 67.34 13.6713 66.9376 13.3544C66.382 12.9847 65.7197 12.8116 65.0552 12.8624C64.218 12.8658 63.383 12.9518 62.5625 13.1194L58.4616 30.4098H52.1641L57.2811 9.09147Z" fill="white"/>
<path d="M74.3911 21.4911C74.3791 19.6388 74.6934 17.7991 75.3195 16.0569C75.9098 14.414 76.815 12.9033 77.984 11.6103C79.1614 10.3205 80.5944 9.29245 82.1909 8.59215C83.9316 7.839 85.8111 7.46364 87.7063 7.49062C88.8509 7.48003 89.9928 7.60325 91.1091 7.85779C92.0508 8.07608 92.9662 8.39617 93.8394 8.81246L91.6829 13.74C91.1152 13.5123 90.5304 13.3067 89.9285 13.1231C89.2048 12.9244 88.4564 12.8316 87.7063 12.8477C85.5937 12.8477 83.9319 13.5625 82.7209 14.992C81.5098 16.4216 80.9007 18.3676 80.8934 20.8302C80.8355 22.0666 81.1612 23.2905 81.8254 24.333C82.4443 25.224 83.5859 25.6708 85.2501 25.6732C86.0454 25.6761 86.8386 25.5899 87.6149 25.4162C88.3101 25.2669 88.9903 25.0543 89.6471 24.781L90.1113 29.8333C89.2619 30.1642 88.3927 30.4413 87.5089 30.6632C86.3803 30.9253 85.2241 31.0486 84.0659 31.0303C82.55 31.0726 81.0407 30.8131 79.6251 30.2666C78.4879 29.8069 77.4639 29.104 76.6243 28.2068C75.8312 27.3388 75.2461 26.3001 74.9138 25.1702C74.5563 23.9772 74.3801 22.7369 74.3911 21.4911Z" fill="white"/>
<path d="M91.2891 21.6638C91.2851 19.8653 91.6071 18.0811 92.2394 16.3985C92.8499 14.7372 93.7606 13.2036 94.9258 11.8748C96.1008 10.5372 97.5298 9.44865 99.1291 8.67306C100.84 7.85214 102.716 7.43875 104.612 7.46505C105.543 7.46173 106.468 7.60927 107.353 7.90199C108.163 8.16837 108.915 8.58567 109.571 9.13203C110.204 9.67291 110.709 10.3475 111.052 11.1074C111.414 11.9445 111.593 12.8496 111.578 13.7621C111.624 15.1829 111.257 16.5864 110.522 17.8011C109.788 18.9332 108.783 19.8614 107.598 20.4998C106.201 21.242 104.694 21.7505 103.135 22.0053C101.279 22.3284 99.3974 22.4845 97.5136 22.4716C97.7109 23.6612 98.141 24.5045 98.8038 25.0014C99.4653 25.4934 100.514 25.7358 101.951 25.7358C102.872 25.7349 103.791 25.6563 104.699 25.5008C105.594 25.3554 106.471 25.1218 107.32 24.8032L107.784 29.7711C106.802 30.1384 105.791 30.4221 104.761 30.6192C103.447 30.877 102.11 31 100.77 30.9864C99.2639 31.0299 97.7634 30.7805 96.3513 30.2521C95.2591 29.8339 94.2794 29.1649 93.4905 28.2985C92.7016 27.432 92.1255 26.3922 91.8081 25.2621C91.4607 24.0947 91.2859 22.8823 91.2891 21.6638ZM103.588 12.4844C102.887 12.4803 102.192 12.6154 101.543 12.8819C100.893 13.1484 100.303 13.5411 99.8053 14.0375C98.6815 15.1432 97.9344 16.5774 97.6707 18.1352C99.0909 18.1139 100.506 17.964 101.9 17.6873C102.768 17.5209 103.608 17.2277 104.392 16.817C104.885 16.5728 105.296 16.1902 105.577 15.7155C105.769 15.3558 105.877 14.9562 105.891 14.5479C105.891 13.1747 105.123 12.488 103.588 12.488V12.4844Z" fill="white"/>
<path d="M126.062 13.4944L124.388 13.1052C123.586 12.9572 122.772 12.8932 121.957 12.9143C121.518 12.9185 121.08 12.9541 120.645 13.0208C120.247 13.0743 119.853 13.1515 119.465 13.2521L116.288 26.5329C116.025 27.6375 115.399 28.6208 114.511 29.3242C113.623 30.0277 112.525 30.4102 111.394 30.4103H109.062L114.136 9.26089C115.349 8.86801 116.694 8.48982 118.215 8.13733C119.887 7.76434 121.597 7.5857 123.31 7.60492C124.095 7.61252 124.88 7.67632 125.656 7.79584C126.434 7.90205 127.194 8.10942 127.919 8.41271L126.062 13.4944Z" fill="white"/>
<path d="M5.01312 3.01099L11.5665 1.99023L10.068 8.23224L8.81066 13.4462L6.86621 21.5644C6.70655 22.1658 6.60014 22.7801 6.54822 23.4003C6.49703 23.9 6.56986 24.4046 6.76021 24.869C6.95487 25.2912 7.29315 25.6298 7.71416 25.8237C8.29982 26.0755 8.93456 26.191 9.5709 26.1615C10.2311 26.1638 10.8898 26.0998 11.5373 25.9706C12.189 25.8371 12.8313 25.6604 13.4598 25.4418L13.924 30.2812C13.0268 30.608 12.11 30.8778 11.1791 31.089C10.0254 31.3304 8.84869 31.4437 7.67031 31.4268C5.72097 31.4268 4.21268 31.1368 3.14542 30.5566C2.13966 30.0454 1.33486 29.2084 0.861042 28.181C0.39079 27.0883 0.185356 25.8991 0.261622 24.7112C0.329348 23.3225 0.526359 21.9432 0.850077 20.5914L5.01312 3.01099Z" fill="white"/>
<path d="M19.2474 7.62668L12.0032 7.54224L10.4023 14.1441L16.3234 14.078L19.2474 7.62668Z" fill="white"/>
</svg>
