<svg width="27" height="27" viewBox="0 0 27 27" fill="none" xmlns="http://www.w3.org/2000/svg">
<path d="M8.73147 2.4209H17.8978C21.3897 2.4209 24.2269 5.25809 24.2269 8.75002V17.9163C24.2269 19.5949 23.5601 21.2048 22.3731 22.3917C21.1862 23.5786 19.5764 24.2455 17.8978 24.2455H8.73147C5.23954 24.2455 2.40234 21.4083 2.40234 17.9163V8.75002C2.40234 7.07143 3.06916 5.4616 4.2561 4.27466C5.44304 3.08771 7.05288 2.4209 8.73147 2.4209ZM8.51322 4.60335C7.47134 4.60335 6.47213 5.01724 5.73541 5.75396C4.99869 6.49068 4.5848 7.48989 4.5848 8.53178V18.1346C4.5848 20.3061 6.34168 22.063 8.51322 22.063H18.116C19.1579 22.063 20.1571 21.6491 20.8938 20.9124C21.6306 20.1757 22.0445 19.1765 22.0445 18.1346V8.53178C22.0445 6.36023 20.2876 4.60335 18.116 4.60335H8.51322ZM19.0436 6.2402C19.4053 6.2402 19.7523 6.38391 20.0081 6.63971C20.2639 6.89552 20.4076 7.24247 20.4076 7.60423C20.4076 7.966 20.2639 8.31294 20.0081 8.56875C19.7523 8.82456 19.4053 8.96827 19.0436 8.96827C18.6818 8.96827 18.3349 8.82456 18.0791 8.56875C17.8232 8.31294 17.6795 7.966 17.6795 7.60423C17.6795 7.24247 17.8232 6.89552 18.0791 6.63971C18.3349 6.38391 18.6818 6.2402 19.0436 6.2402ZM13.3146 7.87704C14.7617 7.87704 16.1495 8.45188 17.1727 9.47511C18.1959 10.4983 18.7708 11.8861 18.7708 13.3332C18.7708 14.7802 18.1959 16.168 17.1727 17.1913C16.1495 18.2145 14.7617 18.7893 13.3146 18.7893C11.8676 18.7893 10.4798 18.2145 9.45655 17.1913C8.43333 16.168 7.85848 14.7802 7.85848 13.3332C7.85848 11.8861 8.43333 10.4983 9.45655 9.47511C10.4798 8.45188 11.8676 7.87704 13.3146 7.87704ZM13.3146 10.0595C12.4464 10.0595 11.6137 10.4044 10.9998 11.0183C10.3858 11.6323 10.0409 12.4649 10.0409 13.3332C10.0409 14.2014 10.3858 15.0341 10.9998 15.648C11.6137 16.262 12.4464 16.6069 13.3146 16.6069C14.1829 16.6069 15.0155 16.262 15.6295 15.648C16.2434 15.0341 16.5883 14.2014 16.5883 13.3332C16.5883 12.4649 16.2434 11.6323 15.6295 11.0183C15.0155 10.4044 14.1829 10.0595 13.3146 10.0595Z" fill="white"/>
</svg>
