<svg width="27" height="27" viewBox="0 0 27 27" fill="none" xmlns="http://www.w3.org/2000/svg">
<g clip-path="url(#clip0_689_2151)">
<path d="M26.3965 13.334C26.3965 6.10197 20.5338 0.239258 13.3018 0.239258C6.06974 0.239258 0.207031 6.10197 0.207031 13.334C0.207031 19.8699 4.99556 25.2873 11.2557 26.2697V17.1192H7.93088V13.334H11.2557V10.4491C11.2557 7.16719 13.2107 5.35439 16.2018 5.35439C17.634 5.35439 19.133 5.61015 19.133 5.61015V8.83268H17.4819C15.8552 8.83268 15.3478 9.84215 15.3478 10.8787V13.334H18.9796L18.399 17.1192H15.3478V26.2697C21.608 25.2873 26.3965 19.8699 26.3965 13.334Z" fill="white"/>
</g>
<defs>
<clipPath id="clip0_689_2151">
<rect width="26.1895" height="26.1895" fill="white" transform="translate(0.207031 0.239258)"/>
</clipPath>
</defs>
</svg>
