<svg width="28" height="27" viewBox="0 0 28 27" fill="none" xmlns="http://www.w3.org/2000/svg">
<g clip-path="url(#clip0_665_1987)">
<path d="M27.0567 13.1514C27.0567 5.91935 21.194 0.0566406 13.9619 0.0566406C6.7299 0.0566406 0.867188 5.91935 0.867188 13.1514C0.867188 19.6872 5.65572 25.1047 11.9159 26.087V16.9366H8.59104V13.1514H11.9159V10.2664C11.9159 6.98458 13.8709 5.17177 16.8619 5.17177C18.2942 5.17177 19.7932 5.42753 19.7932 5.42753V8.65006H18.142C16.5154 8.65006 16.008 9.65953 16.008 10.6961V13.1514H19.6397L19.0592 16.9366H16.008V26.087C22.2681 25.1047 27.0567 19.6872 27.0567 13.1514Z" fill="white"/>
</g>
<defs>
<clipPath id="clip0_665_1987">
<rect width="26.1895" height="26.1895" fill="white" transform="translate(0.867188 0.0566406)"/>
</clipPath>
</defs>
</svg>
