<svg width="143" height="10" viewBox="0 0 143 10" fill="none" xmlns="http://www.w3.org/2000/svg">
<path d="M71.625 9.36663C69.9299 9.36663 68.2899 9.3333 66.7051 9.26663C65.1117 9.19997 63.7853 9.11108 62.7259 8.99997L4.24607 2.86663C1.91535 2.62219 0.75 2.31108 0.75 1.9333C0.75 1.55552 1.91535 1.24441 4.24607 0.999967C6.57679 0.755522 9.54316 0.633301 13.1452 0.633301C16.7472 0.633301 19.7136 0.755522 22.0443 0.999967L71.625 6.19997L121.206 0.999967C123.536 0.755522 126.503 0.633301 130.105 0.633301C133.707 0.633301 136.673 0.755522 139.004 0.999967C141.335 1.24441 142.5 1.55552 142.5 1.9333C142.5 2.31108 141.335 2.62219 139.004 2.86663L80.5241 8.99997C79.2528 9.1333 77.8756 9.22752 76.3924 9.28263C74.9092 9.33863 73.3201 9.36663 71.625 9.36663V9.36663Z" fill="#2A2D33" fill-opacity="0.5"/>
</svg>
