<svg width="6" height="4" viewBox="0 0 6 4" fill="none" xmlns="http://www.w3.org/2000/svg">
<path d="M3 4C2.92825 4 2.85883 3.98473 2.79175 3.9542C2.7243 3.92366 2.66816 3.88295 2.62332 3.83206L0.147982 1.0229C0.0493271 0.910942 0 0.768447 0 0.595419C0 0.422392 0.0493271 0.279898 0.147982 0.167939C0.246637 0.0559794 0.372197 0 0.524664 0C0.67713 0 0.802691 0.0559794 0.901345 0.167939L3 2.54962L5.09865 0.167939C5.19731 0.0559794 5.32287 0 5.47534 0C5.6278 0 5.75336 0.0559794 5.85202 0.167939C5.95067 0.279898 6 0.422392 6 0.595419C6 0.768447 5.95067 0.910942 5.85202 1.0229L3.37668 3.83206C3.32287 3.89313 3.26457 3.93628 3.20179 3.96153C3.13901 3.98718 3.07175 4 3 4Z" fill="white"/>
</svg>
