<svg width="755" height="4" viewBox="0 0 755 4" fill="none" xmlns="http://www.w3.org/2000/svg">
<path d="M377.75 4C368.728 4 359.998 3.98473 351.562 3.9542C343.081 3.92366 336.021 3.88295 330.382 3.83206L19.1087 1.0229C6.70289 0.910942 0.5 0.768447 0.5 0.595419C0.5 0.422392 6.70289 0.279898 19.1087 0.167939C31.5145 0.0559794 47.3038 0 66.4764 0C85.6491 0 101.438 0.0559794 113.844 0.167939L377.75 2.54962L641.656 0.167939C654.062 0.0559794 669.851 0 689.024 0C708.196 0 723.985 0.0559794 736.391 0.167939C748.797 0.279898 755 0.422392 755 0.595419C755 0.768447 748.797 0.910942 736.391 1.0229L425.118 3.83206C418.351 3.89313 411.02 3.93628 403.126 3.96153C395.231 3.98718 386.772 4 377.75 4V4Z" fill="white"/>
</svg>
