<svg width="45" height="10" viewBox="0 0 45 10" fill="none" xmlns="http://www.w3.org/2000/svg">
<path d="M22.5596 9.36663C22.038 9.36663 21.5333 9.3333 21.0456 9.26663C20.5553 9.19997 20.1472 9.11108 19.8212 8.99997L1.82581 2.86663C1.1086 2.62219 0.75 2.31108 0.75 1.9333C0.75 1.55552 1.1086 1.24441 1.82581 0.999967C2.54301 0.755522 3.45582 0.633301 4.56423 0.633301C5.67264 0.633301 6.58545 0.755522 7.30266 0.999967L22.5596 6.19997L37.8165 0.999967C38.5337 0.755522 39.4466 0.633301 40.555 0.633301C41.6634 0.633301 42.5762 0.755522 43.2934 0.999967C44.0106 1.24441 44.3692 1.55552 44.3692 1.9333C44.3692 2.31108 44.0106 2.62219 43.2934 2.86663L25.298 8.99997C24.9068 9.1333 24.483 9.22752 24.0266 9.28263C23.5702 9.33863 23.0812 9.36663 22.5596 9.36663V9.36663Z" fill="#2A2D33" fill-opacity="0.5"/>
</svg>
